<?xml version="1.0" encoding="UTF-8"?>
<svg version="1.1" viewBox="0 0 1600 1600" width="100" height="100" xmlns="http://www.w3.org/2000/svg">
<path transform="translate(793,96)" d="m0 0h12l10 4 10 10 12 19 7 12 10 21 8 16 14 29 13 28 19 39 9 20 8 16 15 31 10 22 8 16 14 29 9 20 8 16 9 19 8 16 17 33 6 9 8 3 21 2 38 3 35 4 38 6 82 10 46 7 61 7 63 10 45 6 10 3 10 7 7 7 6 10 2 6v11l-4 8-8 10-12 14-10 10h-2v2l-8 7-7 7-8 7-9 9-8 7-14 14-8 7-11 11-8 7-9 9-8 7-8 8-8 7-9 9-8 7-14 14-8 7-21 21-8 7-10 10h-2v2l-8 7-22 22-8 7-26 26-8 7-15 14-13 12-4 8 2 16 5 26 6 31 9 53 10 54 7 38 7 37 8 47 6 29 9 53 9 39 1 6 1 20-2 7-7 9-10 8-11 9-8-1-27-12-20-10-22-12-28-15-24-13-23-13-34-18-18-10-28-15-68-37-46-25-25-13-22-12-16-10-5-3-7 1-19 11-25 13-22 12-30 16-23 13-23 12-22 12-32 17-22 12-26 14-23 13-29 15-22 12-27 14-22 12-22 11-15 6-4 1h-9l-11-10-8-6-6-9-2-5v-16l5-26 8-36 6-41 10-48 7-43 10-50 6-37 9-45 7-43 6-29 6-26 1-8-4-8-9-10-10-10-8-7-22-22-2-1v-2l-4-2-30-30-8-7-28-28-8-7-17-17-8-7-14-14-8-7-10-10-8-7-11-11-8-7-8-8-8-7-17-16-13-12-7-7-8-7-7-7-8-7-7-7-8-7-7-7-9-11-7-9-6-10v-7l4-10 10-13 8-6 13-4 53-7 50-8 67-8 51-8 60-7 77-11 59-6 16-2 7-3 5-8 13-24 14-29 9-20 10-19 7-16 8-16 14-29 11-24 8-16 12-25 8-18 8-16 13-27 13-28 11-22 11-23 12-25 13-22 9-10 10-6z" fill="#FDBB27"/>
<path transform="translate(1224,1297)" d="m0 0h5l8 46 7 29 2 11 1 20-2 7-7 9-4 2v-4h-2v-27l1-20 1-1v-20l-3-16-6-20-2-5v-10z" fill="#FEE135"/>
<path transform="translate(793,96)" d="m0 0h12l10 4 8 8v2l-4 4h-9l-5 2-7 1-4 1h-3l-12 3-13 8-3 1 1-5 8-13 8-9 10-6z" fill="#FEE135"/>
<path transform="translate(483,1385)" d="m0 0 1 2-20 10-22 12-29 15-18 8-7 2h-9l-9-8 1-3 16-2 17-2 16-5 16-8 10-4 12-6 10-4 7-4z" fill="#FEE035"/>
<path transform="translate(1487,593)" d="m0 0 4 1 7 10 3 8v11l-4 8-8 10-2 1-2-5 1-4v-7l-3-12v-4h2l-1-4-3-1-3-6v-3l5 1z" fill="#FEE135"/>
<path transform="translate(683,1277)" d="m0 0 1 2-84 45-22 12-13 7-3-1 12-8 10-7 12-7 11-6 12-7 10-4 10-6 11-6 10-4 18-9z" fill="#FEDF35"/>
<path transform="translate(360,1352)" d="m0 0h1l2 17-1 23 1 19h2v10l-4-2-6-8-3-7v-16l5-26z" fill="#FEE135"/>
<path transform="translate(1468,661)" d="m0 0 2 1-3 3h-2v2l-8 7-7 7-8 7-9 9-8 7-14 14-8 7-11 11-8 7-2-1 11-12 7-8 4-4 2-3h2l2-4h2l2-4 6-5 2-3h2l2-4 12-11 5-5 10-8 5-5z" fill="#FEE035"/>
<path transform="translate(1173,1413)" d="m0 0 10 2 8 3v2l13 2v2l7 1 4 1v-1l7-2 4 1 2 3-11 9-8-1-27-12-16-8 3-1 4 1z" fill="#FEE035"/>
<path transform="translate(793,96)" d="m0 0h12l10 4 3 3v2l-2 1h-11l-7 1-9-1-5 1-1 1h-6l2-4 11-7z" fill="#FDBB27"/>
<path transform="translate(1215,1230)" d="m0 0 2 4 7 36 3 17-6-2-2-7-4-24-4-15-1-1v-7z" fill="#FEE035"/>
<path transform="translate(117,644)" d="m0 0 5 4 1 3 6 3 5 5 2 4 4 2 5 6 4 2 3 5 1 3-4-2-10-9-17-16-6-7z" fill="#FEE035"/>
<path transform="translate(816,1224)" d="m0 0h7l10 5 6 5 1 3-5-1-18-10z" fill="#FEE035"/>
<path transform="translate(354,1377)" d="m0 0h1v31l-2-1-1-3v-16z" fill="#FDBB27"/>
<path transform="translate(1180,1055)" d="m0 0h4l2 8 2 11v6l-2-2-3-9-2-9z" fill="#FEDF34"/>
<path transform="translate(403,1113)" d="m0 0 4 1 1 2v9l-3 4h-2z" fill="#FEE135"/>
<path transform="translate(1244,1379)" d="m0 0 2 4 1 20-1 5-2-2-1-10z" fill="#FDBB27"/>
<path transform="translate(372,1290)" d="m0 0 4 2-1 9-6 3v-7l2-2z" fill="#FEE135"/>
<path transform="translate(1197,1133)" d="m0 0 2 1 3 19h-2l-2-4-2-9-1-6z" fill="#FEDE34"/>
<path transform="translate(1204,1172)" d="m0 0h2l2 10-1 8-2-1-2-11z" fill="#FEDF35"/>
<path transform="translate(483,1385)" d="m0 0 1 2-20 10v-3l11-6z" fill="#FEDC33"/>
<path transform="translate(389,1192)" d="m0 0 2 1v10l-2 6-1-4-1-5z" fill="#FEE035"/>
<path transform="translate(704,247)" d="m0 0 2 4-1 5-2 2h-3l2-6z" fill="#FEDD34"/>
<path transform="translate(1200,1154)" d="m0 0h2l2 8v6l-3-4z" fill="#FEDD34"/>
</svg>
